<?xml version="1.0" encoding="utf-8"?>
<!-- Generator: Adobe Illustrator 25.0.1, SVG Export Plug-In . SVG Version: 6.00 Build 0)  -->
<svg version="1.1" id="Layer_1" xmlns="http://www.w3.org/2000/svg" xmlns:xlink="http://www.w3.org/1999/xlink" x="0px" y="0px"
	 viewBox="0 0 100 100" style="enable-background:new 0 0 100 100;" xml:space="preserve">
<polygon points="94,0 58.5,0 58.5,6 89.8,6 47.9,47.9 52.1,52.1 94,10.2 94,41.5 100,41.5 100,6 100,0 "/>
<path d="M94,79.5c0,8-6.5,14.5-14.5,14.5h-59C12.5,94,6,87.5,6,79.5v-59C6,12.5,12.5,6,20.5,6H42V0H20.5C9.2,0,0,9.2,0,20.5v59
	C0,90.8,9.2,100,20.5,100h59c11.3,0,20.5-9.2,20.5-20.5V58h-6V79.5z"/>
</svg>
