<svg xmlns="http://www.w3.org/2000/svg" width="37.004" height="36" viewBox="0 0 37.004 36">
  <g id="github-logo" transform="translate(-3600 86)">
    <ellipse id="Ellipse_1" cx="17.89" cy="17.358" rx="17.89" ry="17.358" transform="translate(3600.977 -85.014)" fill="#fff"/>
    <path id="GitHub-Mark" d="M18.445,0a18.479,18.479,0,0,0-5.884,35.985c.905.113,1.245-.453,1.245-.905V31.912c-5.092,1.132-6.224-2.49-6.224-2.49a4.673,4.673,0,0,0-2.037-2.716c-1.7-1.132.113-1.132.113-1.132A3.943,3.943,0,0,1,8.487,27.5a3.917,3.917,0,0,0,5.319,1.584,3.941,3.941,0,0,1,1.132-2.49c-4.074-.453-8.374-2.037-8.374-9.166a7.015,7.015,0,0,1,1.924-4.979,6.7,6.7,0,0,1,.226-4.753s1.584-.453,5.092,1.924a15.813,15.813,0,0,1,4.64-.566,20.828,20.828,0,0,1,4.64.566c3.508-2.376,5.092-1.924,5.092-1.924a7.085,7.085,0,0,1,.226,4.866,7.319,7.319,0,0,1,1.924,4.979c0,7.129-4.3,8.6-8.374,9.053A4.322,4.322,0,0,1,23.2,29.988V35.08c0,.453.339,1.018,1.245.905A18.479,18.479,0,0,0,18.445,0Z" transform="translate(3600 -86)" fill="#191717" fill-rule="evenodd"/>
  </g>
</svg>
